<svg width="24" height="29" viewBox="0 0 24 29" fill="none" xmlns="http://www.w3.org/2000/svg">
<path d="M7.64964 22.7688L7.77152 21.6847L6.46631 21.5381L6.56161 22.848L7.64964 22.7688ZM16.3504 22.7688L17.4385 22.848L17.5338 21.5381L16.2285 21.6847L16.3504 22.7688ZM7.52776 23.8528C10.4999 24.1871 13.5001 24.1871 16.4723 23.8528L16.2285 21.6847C13.4183 22.0006 10.5817 22.0006 7.77152 21.6847L7.52776 23.8528ZM17.2778 23.8639C17.3598 23.5302 17.4135 23.1903 17.4385 22.848L15.2624 22.6897C15.2464 22.9099 15.2118 23.1283 15.1591 23.343L17.2778 23.8639ZM17.1585 24.3488L17.2778 23.8639L15.1591 23.343L15.0399 23.8278L17.1585 24.3488ZM13.2777 28.2131C15.192 27.7552 16.688 26.2624 17.1585 24.3488L15.0399 23.8278C14.7633 24.9525 13.8858 25.8243 12.77 26.0912L13.2777 28.2131ZM10.7225 28.2131C11.5625 28.4142 12.4377 28.4142 13.2777 28.2131L12.77 26.0912C12.2637 26.2124 11.7363 26.2124 11.23 26.0912L10.7225 28.2131ZM6.84152 24.3488C7.31205 26.2624 8.80804 27.7552 10.7225 28.2131L11.23 26.0912C10.1142 25.8243 9.2368 24.9525 8.96023 23.8278L6.84152 24.3488ZM6.72229 23.8639L6.84152 24.3488L8.96023 23.8278L8.841 23.343L6.72229 23.8639ZM6.56161 22.848C6.58651 23.1903 6.64023 23.5302 6.72229 23.8639L8.841 23.343C8.78823 23.1283 8.7537 22.9099 8.73768 22.6897L6.56161 22.848Z" fill="#191BA9"/>
<path d="M13.091 1.09091C13.091 0.488422 12.6026 0 12.0001 0C11.3976 0 10.9092 0.488422 10.9092 1.09091H13.091ZM10.9092 2.55235C10.9092 3.15484 11.3976 3.64326 12.0001 3.64326C12.6026 3.64326 13.091 3.15484 13.091 2.55235H10.9092ZM10.9092 1.09091V2.55235H13.091V1.09091H10.9092Z" fill="#191BA9"/>
<path d="M3.31316 9.28386L4.36611 9.56915L3.31316 9.28386ZM9.32131 2.98514L8.98489 1.94739L9.32131 2.98514ZM3.24796 9.52451L2.19501 9.23922L3.24796 9.52451ZM2.96663 15.4437L4.04189 15.2595L2.96663 15.4437ZM2.99937 15.6348L1.9241 15.819L2.99937 15.6348ZM3.69104 22.1196L3.90881 21.0507L3.69104 22.1196ZM4.22572 22.2286L4.00796 23.2975L4.22572 22.2286ZM19.7743 22.2286L19.992 23.2975L19.7743 22.2286ZM20.3089 22.1196L20.0912 21.0507L20.3089 22.1196ZM21.0068 15.5982L22.0822 15.7823L21.0068 15.5982ZM21.0416 15.3954L19.9664 15.2112L21.0416 15.3954ZM20.7879 9.56553L19.7328 9.84237L20.7879 9.56553ZM20.6972 9.21951L21.7523 8.94267L20.6972 9.21951ZM14.8612 2.99408L15.2033 1.95821L14.8612 2.99408ZM21.2407 16.0739L20.7081 17.0259L21.2407 16.0739ZM2.78977 16.0571L3.3122 17.0147L2.78977 16.0571ZM4.36611 9.56915C5.07527 6.95181 7.08439 4.85704 9.6576 4.0229L8.98489 1.94739C5.71565 3.00713 3.16362 5.66432 2.26022 8.99856L4.36611 9.56915ZM4.3009 9.80981L4.36611 9.56915L2.26022 8.99856L2.19501 9.23922L4.3009 9.80981ZM4.04189 15.2595C3.73135 13.4457 3.81975 11.5855 4.3009 9.80981L2.19501 9.23922C1.63095 11.3211 1.52733 13.5016 1.89137 15.6277L4.04189 15.2595ZM4.07463 15.4507L4.04189 15.2595L1.89137 15.6277L1.9241 15.819L4.07463 15.4507ZM2.18182 18.9243C2.18182 18.0992 2.63833 17.3824 3.3122 17.0147L2.26735 15.0994C0.91744 15.8358 0 17.2729 0 18.9243H2.18182ZM3.90881 21.0507C2.90753 20.8467 2.18182 19.96 2.18182 18.9243H0C0 20.9903 1.44896 22.7762 3.47327 23.1886L3.90881 21.0507ZM4.44349 21.1596L3.90881 21.0507L3.47327 23.1886L4.00796 23.2975L4.44349 21.1596ZM19.5565 21.1596C14.5696 22.1755 9.4304 22.1755 4.44349 21.1596L4.00796 23.2975C9.28233 24.372 14.7177 24.372 19.992 23.2975L19.5565 21.1596ZM20.0912 21.0507L19.5565 21.1596L19.992 23.2975L20.5267 23.1886L20.0912 21.0507ZM21.8182 18.9243C21.8182 19.96 21.0925 20.8467 20.0912 21.0507L20.5267 23.1886C22.551 22.7762 24 20.9903 24 18.9243H21.8182ZM20.7081 17.0259C21.3709 17.3968 21.8182 18.1075 21.8182 18.9243H24C24 17.2895 23.1009 15.8648 21.7734 15.1219L20.7081 17.0259ZM19.9664 15.2112L19.9316 15.414L22.0822 15.7823L22.1169 15.5795L19.9664 15.2112ZM19.7328 9.84237C20.1924 11.5945 20.2721 13.4255 19.9664 15.2112L22.1169 15.5795C22.4752 13.487 22.3818 11.3417 21.8432 9.28869L19.7328 9.84237ZM19.642 9.49635L19.7328 9.84237L21.8432 9.28869L21.7523 8.94267L19.642 9.49635ZM14.5191 4.02997C17.0359 4.86118 18.9654 6.91753 19.642 9.49635L21.7523 8.94267C20.8892 5.65237 18.4253 3.02233 15.2033 1.95821L14.5191 4.02997ZM9.6576 4.0229C11.2349 3.51163 12.9495 3.51161 14.5191 4.02997L15.2033 1.95821C13.1885 1.29277 10.9984 1.29469 8.98489 1.94739L9.6576 4.0229ZM21.7734 15.1219C21.982 15.2386 22.1324 15.4892 22.0822 15.7823L19.9316 15.414C19.816 16.0894 20.1623 16.7205 20.7081 17.0259L21.7734 15.1219ZM1.9241 15.819C1.87024 15.5043 2.03217 15.2277 2.26735 15.0994L3.3122 17.0147C3.84973 16.7215 4.18684 16.1061 4.07463 15.4507L1.9241 15.819Z" fill="#242525"/>
<path d="M22 5.00002C22 7.20916 20.2091 9.00002 18 9.00002C15.7909 9.00002 14 7.20916 14 5.00002C14 2.79088 15.7909 1.00002 18 1.00002C20.2091 1.00002 22 2.79088 22 5.00002Z" fill="#191BA9"/>
</svg>
