<?xml version="1.0" standalone="no"?>
<!DOCTYPE svg PUBLIC "-//W3C//DTD SVG 20010904//EN"
 "http://www.w3.org/TR/2001/REC-SVG-20010904/DTD/svg10.dtd">
<svg version="1.0" xmlns="http://www.w3.org/2000/svg"
 width="512.000000pt" height="512.000000pt" viewBox="0 0 512.000000 512.000000"
 preserveAspectRatio="xMidYMid meet">

<g transform="translate(0.000000,512.000000) scale(0.100000,-0.100000)"
fill="" stroke="">
<path d="M3010 4462 c0 -406 6 -448 77 -592 55 -110 170 -223 283 -278 80 -39
181 -72 223 -72 17 0 18 -9 15 -142 -3 -125 -6 -149 -26 -189 -30 -61 -81
-113 -145 -147 l-52 -27 -1400 -5 c-1305 -5 -1404 -7 -1459 -24 -248 -75 -433
-261 -503 -506 -16 -59 -18 -109 -18 -525 0 -416 2 -466 18 -525 56 -198 192
-363 373 -454 147 -73 102 -70 960 -73 l772 -4 6 -33 c19 -100 96 -238 184
-329 157 -161 306 -225 550 -234 l142 -6 0 300 0 300 123 6 c683 32 1237 519
1363 1197 15 83 18 181 21 756 l5 661 66 12 c38 7 108 32 162 58 162 78 282
219 341 398 22 67 23 85 27 453 l3 382 -306 0 c-348 0 -397 -6 -531 -70 -53
-26 -104 -60 -150 -103 l-69 -64 -69 64 c-46 43 -96 77 -150 103 -134 64 -183
70 -530 70 l-306 0 0 -358z m690 27 c30 -15 73 -42 96 -62 54 -47 104 -143
111 -212 l6 -55 152 0 152 0 6 55 c7 69 57 165 111 211 22 19 65 47 96 62 52
26 64 27 223 31 l169 3 -4 -218 c-3 -215 -4 -220 -30 -274 -81 -165 -195 -219
-465 -220 l-112 0 -3 -832 c-3 -825 -4 -834 -25 -911 -124 -439 -435 -739
-873 -843 -47 -12 -141 -17 -332 -21 l-268 -5 0 -284 c0 -156 -2 -284 -5 -284
-26 0 -112 56 -160 105 -99 99 -135 195 -135 362 l0 102 -897 3 -898 3 -67 32
c-94 44 -160 109 -206 202 l-37 75 0 440 0 441 32 67 c44 94 109 160 202 206
l75 37 1400 5 c1326 5 1404 6 1456 24 166 55 304 169 373 306 63 128 69 162
74 483 l6 287 -114 0 c-272 1 -386 54 -467 220 -26 54 -27 59 -30 274 l-4 218
169 -4 c156 -3 172 -5 223 -29z"/>
<path d="M1810 1650 l0 -150 150 0 150 0 0 150 0 150 -150 0 -150 0 0 -150z"/>
</g>
</svg>
